<svg width="25" height="24" viewBox="0 0 25 24" fill="none" xmlns="http://www.w3.org/2000/svg">
<g clip-path="url(#clip0_323_3690)">
<path d="M24.0993 12.2763C24.0993 11.4605 24.0331 10.6404 23.892 9.83789H12.5732V14.4589H19.055C18.786 15.9492 17.9218 17.2676 16.6563 18.1054V21.1037H20.5233C22.7941 19.0137 24.0993 15.9272 24.0993 12.2763Z" fill="#4285F4"/>
<path d="M12.5731 24.0013C15.8096 24.0013 18.5389 22.9387 20.5275 21.1044L16.6606 18.106C15.5847 18.838 14.1957 19.2525 12.5775 19.2525C9.44689 19.2525 6.79247 17.1404 5.84006 14.3008H1.84961V17.3917C3.88672 21.4439 8.03591 24.0013 12.5731 24.0013Z" fill="#34A853"/>
<path d="M5.83578 14.3007C5.33312 12.8103 5.33312 11.1965 5.83578 9.70618V6.61523H1.84974C0.147742 10.006 0.147742 14.0009 1.84974 17.3916L5.83578 14.3007Z" fill="#FBBC04"/>
<path d="M12.5731 4.74966C14.2839 4.7232 15.9374 5.36697 17.1765 6.54867L20.6025 3.12262C18.4331 1.0855 15.5538 -0.034466 12.5731 0.000808666C8.0359 0.000808666 3.88672 2.55822 1.84961 6.61481L5.83565 9.70575C6.78365 6.86173 9.44248 4.74966 12.5731 4.74966Z" fill="#EA4335"/>
</g>
<defs>
<clipPath id="clip0_323_3690">
<rect width="24" height="24" fill="white" transform="translate(0.333252)"/>
</clipPath>
</defs>
</svg>
