<svg xmlns="http://www.w3.org/2000/svg"
     viewBox="91.3447 128.568 269.8763 195.428"
     width="100" height="100"
     preserveAspectRatio="xMidYMid slice">
  <path
    d="M308.597 160.498C283.079 128.568 219.476 136.983 166.526 179.299C113.577 221.615 91.3447 281.798 116.863 313.728L143.969 292.066C169.487 323.996 233.091 315.581 286.04 273.265C338.989 230.949 361.221 170.766 335.703 138.836L308.597 160.498ZM266.605 276.736C256.626 284.711 244.506 289.548 231.779 290.634C219.051 291.721 206.287 289.01 195.1 282.842C183.914 276.675 174.807 267.329 168.932 255.986C163.057 244.643 160.678 231.813 162.095 219.117C163.512 206.422 168.662 194.432 176.893 184.664C185.124 174.895 196.067 167.787 208.339 164.238C220.61 160.689 233.658 160.858 245.832 164.725C258.007 168.591 268.762 175.981 276.737 185.96C287.431 199.341 292.371 216.423 290.471 233.446C288.571 250.47 279.986 266.042 266.605 276.736Z"
    fill="#006400"/>
</svg>
